HIERARCHY
ROOT root     
{
	OFFSET 0.0000 0.0000 0.0000
	CHANNELS 6 Xposition Yposition Zposition Zrotation Yrotation Xrotation
	JOINT pelvis   
	{
		OFFSET 0.0000 0.0000 0.0000
		CHANNELS 3 Zrotation Yrotation Xrotation
		JOINT thorax   
		{
			OFFSET 0.0000 23.0750 -5.0000
			CHANNELS 3 Zrotation Yrotation Xrotation
			JOINT rclavicle
			{
				OFFSET 0.0000 28.0009 0.0000
				CHANNELS 3 Zrotation Yrotation Xrotation
				JOINT rhumerus 
				{
					OFFSET -18.5725 5.5939 0.0000
					CHANNELS 3 Zrotation Yrotation Xrotation
					JOINT rradius  
					{
						OFFSET -24.8459 0.0000 0.0000
						CHANNELS 3 Zrotation Yrotation Xrotation
						JOINT rhand    
						{
							OFFSET -24.5477 0.0000 0.0000
							CHANNELS 3 Zrotation Yrotation Xrotation
							End Site
							{
								OFFSET -8.1826 0.0000 0.0000
							}
						}
					}
				}
			}
			JOINT lclavicle
			{
				OFFSET 0.0000 28.0009 0.0000
				CHANNELS 3 Zrotation Yrotation Xrotation
				JOINT lhumerus 
				{
					OFFSET 18.5725 5.5939 0.0000
					CHANNELS 3 Zrotation Yrotation Xrotation
					JOINT lradius  
					{
						OFFSET 24.8459 0.0000 0.0000
						CHANNELS 3 Zrotation Yrotation Xrotation
						JOINT lhand    
						{
							OFFSET 24.5477 0.0000 0.0000
							CHANNELS 3 Zrotation Yrotation Xrotation
							End Site
							{
								OFFSET 8.1826 0.0000 0.0000
							}
						}
					}
				}
			}
			JOINT head     
			{
				OFFSET 0.0000 35.2030 0.0000
				CHANNELS 3 Zrotation Yrotation Xrotation
				End Site
				{
					OFFSET 0.0000 11.7343 0.0000
				}
			}
		}
		JOINT rfemur   
		{
			OFFSET -8.2817 0.0000 0.0000
			CHANNELS 3 Zrotation Yrotation Xrotation
			JOINT rtibia   
			{
				OFFSET 0.0000 -43.3627 0.0000
				CHANNELS 3 Zrotation Yrotation Xrotation
				JOINT rfoot    
				{
					OFFSET 0.0000 -38.2947 0.0000
					CHANNELS 3 Zrotation Yrotation Xrotation
					JOINT rtoes    
					{
						OFFSET 0.0000 0.0000 16.6054
						CHANNELS 3 Zrotation Yrotation Xrotation
						End Site
						{
							OFFSET 0.0000 0.0000 5.5351
						}
					}
				}
			}
		}
		JOINT lfemur   
		{
			OFFSET 8.2817 0.0000 0.0000
			CHANNELS 3 Zrotation Yrotation Xrotation
			JOINT ltibia   
			{
				OFFSET 0.0000 -43.3627 0.0000
				CHANNELS 3 Zrotation Yrotation Xrotation
				JOINT lfoot    
				{
					OFFSET 0.0000 -38.2947 0.0000
					CHANNELS 3 Zrotation Yrotation Xrotation
					JOINT ltoes    
					{
						OFFSET 0.0000 0.0000 16.6054
						CHANNELS 3 Zrotation Yrotation Xrotation
						End Site
						{
							OFFSET 0.0000 0.0000 5.5351
						}
					}
				}
			}
		}
	}
}
MOTION
Frames: 23
Frame Time: .0333333
58.264 71.222 2.245 -37.0653 83.7879 -9.76046 0 -0 0 -10.1279 8.41395 11.6625 13.9941 -12.3669 -3.86803e-05 53.2652 -9.03506 9.86392 180 61.8784 180 0.487012 3.8224 0.0163005 -9.40175 23.2632 7.21375e-05 -58.4102 23.0676 14.7013 180 -79.507 -180 -8.19589 1.26668 -0.0907999 9.48925 -4.90578 -14.9746 1.21097 -9.48659 -9.47735 -0 -0 53.0007 2.93895e-06 -13.9367 -0.548308 0.136102 4.02285e-07 -51.161 -8.14484 10.1284 -81.1691 -0 -0 64.7058 4.52848e-06 6.64139 1.98381 0.230897 7.4771e-07 -21.4681 
59.565 71.158 2.2238 -35.8815 83.8223 -8.6596 0 -0 0 -10.6594 7.86501 11.599 14.4 -12.1563 -1.07372e-06 54.8736 -8.95548 10.331 -180 63.4873 -180 0.398103 3.97204 0.0138004 -10.3385 22.7327 -8.07927e-05 -58.2556 20.4011 13.6993 -180 -80.2227 180 -7.59767 1.74043 -0.115601 9.22111 -4.47377 -15.3477 1.10038 -9.69449 -10.6086 -0 -0 55.9015 -9.67567e-07 -14.4679 -0.479998 0.123901 -2.68786e-07 -47.1943 -7.98327 9.92888 -80.7399 -0 -0 66.0924 4.10574e-07 7.3314 0.157107 0.0202004 -9.25098e-09 -22.2138 
60.819 71.122 2.2031 -34.8655 83.8433 -7.70501 0 -0 0 -11.1427 7.25491 11.5582 14.7541 -11.9543 7.48979e-05 56.4609 -8.83835 10.8405 180 65.3095 180 0.212504 4.10073 0.00760017 -11.2073 22.1633 -2.69844e-05 -58.08 17.7068 12.6938 180 -80.9974 -180 -7.0022 2.24366 -0.1373 8.93587 -3.9993 -15.6641 1.06098 -9.86991 -11.9163 -0 -0 58.838 5.43383e-07 -14.9731 -0.728487 0.194806 3.27795e-06 -43.3502 -7.71724 9.65225 -80.232 -0 -0 67.2911 7.28944e-07 8.08683 -1.50078 -0.213203 -1.46472e-06 -22.9946 
62.023 71.11 2.1889 -34.0896 83.838 -6.96044 0 -0 0 -11.5785 6.59287 11.5286 15.056 -11.7608 -4.24754e-05 57.9929 -8.69587 11.3896 -180 67.3354 -180 -0.0775998 4.20337 -0.00279995 -11.9773 21.5615 -3.14009e-05 -57.9056 15.0319 11.676 180 -81.8062 -180 -6.42027 2.75278 -0.154402 8.6528 -3.48805 -15.9246 1.10637 -10.0071 -13.395 -0 -0 61.7748 -1.38868e-05 -15.428 -1.25505 0.346302 -3.60528e-06 -39.7496 -7.37105 9.33852 -79.6815 -0 -0 68.3306 3.84872e-06 8.85183 -2.92691 -0.455593 2.1824e-06 -23.7235 
63.176 71.119 2.1864 -33.6136 83.8076 -6.48739 0 -0 0 -11.9701 5.89227 11.502 15.3081 -11.5801 -8.34344e-05 59.4364 -8.53651 11.9782 180 69.5454 180 -0.466898 4.27777 -0.0173996 -12.6154 20.94 7.16039e-05 -57.7539 12.3973 10.6526 -180 -82.6196 180 -5.86447 3.24508 -0.166298 8.38862 -2.9508 -16.1324 1.24648 -10.1035 -15.0406 -0 -0 64.6797 1.07259e-05 -15.8158 -2.01105 0.569503 -2.12361e-06 -36.4589 -6.97372 9.02998 -79.1276 -0 -0 69.2378 5.02924e-06 9.57307 -4.09674 -0.690306 -7.02824e-06 -24.3485 
64.278 71.148 2.1993 -33.4503 83.749 -6.29655 0 -0 0 -12.3204 5.15429 11.4724 15.5065 -11.3984 -4.83955e-06 60.7754 -8.37663 12.5977 180 71.9175 180 -0.944417 4.32233 -0.0356004 -13.1179 20.275 2.75234e-05 -57.6259 9.87629 9.58995 -180 -83.3846 180 -5.33758 3.69463 -0.1723 8.15314 -2.38687 -16.2898 1.48445 -10.1605 -16.8475 -0 -0 67.5206 -1.8105e-06 -16.1218 -2.93748 0.8486 -2.59e-06 -33.5015 -6.55548 8.767 -78.5932 -0 -0 70.0346 2.01782e-06 10.2053 -5.01611 -0.901789 2.92014e-06 -24.8831 
65.329 71.195 2.2299 -33.6103 83.6526 -6.39611 0 -0 0 -12.6325 4.38808 11.4424 15.6563 -11.214 -6.11122e-05 61.9876 -8.22727 13.2438 180 74.4203 180 -1.48341 4.34175 -0.0562009 -13.4662 19.5678 3.54434e-05 -57.5252 7.50056 8.48447 -180 -84.0538 180 -4.849 4.08044 -0.172806 7.95254 -1.80361 -16.399 1.82123 -10.1808 -18.8036 -0 -0 70.2696 1.29652e-05 -16.3416 -3.97084 1.1632 -4.36227e-06 -30.8935 -6.14339 8.58445 -78.0949 -0 -0 70.7403 6.15848e-06 10.7165 -5.72484 -1.08148 2.17243e-06 -25.3555 
66.331 71.26 2.2795 -34.0705 83.5218 -6.76663 0 -0 0 -12.911 3.60809 11.4159 15.7668 -11.0432 -4.81136e-05 63.052 -8.08376 13.9121 180 77.0261 180 -2.04323 4.34026 -0.077401 -13.6405 18.8561 -0.000123389 -57.4606 5.2389 7.37511 180 -84.6434 180 -4.40753 4.39289 -0.169096 7.7904 -1.21513 -16.4687 2.25549 -10.1674 -20.8986 -0 -0 72.8993 -7.32195e-06 -16.4729 -5.04743 1.49035 2.32243e-05 -28.6533 -5.75945 8.50791 -77.6433 -0 -0 71.3713 -3.45089e-06 11.0897 -6.2868 -1.22965 -8.83065e-06 -25.7806 
67.288 71.34 2.3475 -34.7772 83.3549 -7.36161 0 -0 0 -13.1572 2.81645 11.405 15.8401 -10.88 -9.13677e-07 63.9637 -7.9577 14.5942 180 79.6965 180 -2.58558 4.32574 -0.0976985 -13.6483 18.1279 3.74747e-06 -57.4149 3.12451 6.25064 180 -85.1022 -180 -4.01806 4.62091 -0.162204 7.6613 -0.623739 -16.4966 2.78048 -10.1258 -23.1132 -0 -0 75.3875 -1.57562e-05 -16.5222 -6.10551 1.80707 -3.04573e-06 -26.794 -5.41997 8.55168 -77.2338 -0 -0 71.9391 -4.51216e-07 11.3243 -6.76716 -1.35179 1.73217e-06 -26.2078 
68.204 71.434 2.4324 -35.6902 83.1593 -8.15036 0 -0 0 -13.3748 2.02124 11.4228 15.8881 -10.735 -3.56804e-05 64.7121 -7.85029 15.2838 180 82.3959 180 -3.06746 4.30503 -0.115299 -13.4938 17.4136 0.000173932 -57.3732 1.13213 5.14055 180 -85.4511 -180 -3.68572 4.7673 -0.153501 7.55812 -0.0378958 -16.4862 3.38873 -10.0613 -25.424 -0 -0 77.7092 -2.21637e-05 -16.4968 -7.09671 2.09549 -7.61656e-06 -25.3157 -5.13397 8.71734 -76.855 -0 -0 72.4526 4.68201e-06 11.4313 -7.23004 -1.45773 4.04382e-06 -26.6666 
69.089 71.54 2.5316 -36.7331 82.947 -9.07486 0 -0 0 -13.5654 1.21477 11.4874 15.9107 -10.5887 -7.3601e-05 65.3039 -7.78161 15.965 180 85.0867 180 -3.46267 4.29232 -0.129804 -13.1973 16.6735 -5.35085e-05 -57.3099 -0.67514 4.0055 180 -85.6361 -180 -3.41354 4.82025 -0.143701 7.46905 0.549057 -16.4277 4.06738 -9.98486 -27.7969 -0 -0 79.8437 -3.63009e-05 -16.4055 -7.98212 2.34127 -4.95815e-06 -24.2333 -4.90394 8.99626 -76.4829 -0 -0 72.9184 -7.04271e-07 11.4313 -7.72138 -1.55619 8.84716e-06 -27.2068 
69.948 71.657 2.6425 -37.8864 82.7382 -10.1261 0 -0 0 -13.7292 0.41103 11.6096 15.9233 -10.4765 4.46778e-05 65.7303 -7.74157 16.6342 180 87.7499 180 -3.7364 4.28662 -0.139901 -12.7678 15.9919 0.000127681 -57.2069 -2.40861 2.93205 180 -85.7076 180 -3.20496 4.81021 -0.134698 7.38496 1.11907 -16.3214 4.80751 -9.90093 -30.2082 -0 -0 81.7796 3.24859e-05 -16.2569 -8.75185 2.54056 8.83501e-06 -23.4721 -4.72575 9.36892 -76.1058 -0 -0 73.3417 4.14113e-06 11.3478 -8.27393 -1.65431 -1.15779e-05 -27.8192 
70.791 71.781 2.762 -39.1313 82.5298 -11.2998 0 -0 0 -13.867 -0.400691 11.808 15.9228 -10.3727 -3.95334e-05 66.007 -7.75408 17.2663 -0 89.6933 -0 -3.88871 4.30259 -0.1461 -12.2305 15.3089 6.18153e-05 -57.0361 -3.98401 1.86048 180 -85.6434 -180 -3.06219 4.72723 -0.126399 7.29293 1.68171 -16.153 5.59472 -9.82116 -32.6216 -0 -0 83.503 -1.84349e-05 -16.0563 -9.40108 2.69167 3.2654e-06 -23.0058 -4.59 9.81185 -75.6959 -0 -0 73.7265 4.0851e-06 11.2044 -8.89285 -1.75387 -3.85543e-06 -28.5333 
71.625 71.911 2.8876 -40.4429 82.3458 -12.5761 0 -0 0 -13.9804 -1.21281 12.0854 15.921 -10.3036 3.00566e-05 66.1403 -7.81512 17.8513 -4.57204e-07 87.1533 -1.05982e-06 -3.91413 4.33304 -0.148103 -11.6073 14.6926 3.19143e-05 -56.7772 -5.49602 0.857689 180 -85.4967 180 -2.98186 4.6033 -0.119897 7.18567 2.22387 -15.9156 6.41756 -9.75018 -35.0153 -0 -0 85.0063 7.45058e-06 -15.8062 -9.95008 2.80029 3.00333e-06 -22.7252 -4.48429 10.2963 -75.2439 -0 -0 74.0735 -2.27197e-06 11.0203 -9.56836 -1.85407 1.06444e-05 -29.3274 
72.455 72.045 3.0173 -41.8412 82.1897 -13.9826 0 -0 0 -14.0685 -2.02807 12.4446 15.9179 -10.2643 -4.00718e-06 66.1448 -7.93746 18.3665 -3.14006e-06 84.7471 -3.44222e-06 -3.83168 4.37773 -0.146505 -10.9197 14.1292 -2.06539e-05 -56.4094 -6.92954 -0.0916008 180 -85.2848 -180 -2.96191 4.44703 -0.115002 7.05653 2.74445 -15.5955 7.26377 -9.69366 -37.3716 -0 -0 86.2875 1.36803e-05 -15.5054 -10.4204 2.87268 6.44898e-06 -22.5553 -4.39428 10.7959 -74.7354 -0 -0 74.3868 2.76251e-06 10.8091 -10.2726 -1.95011 -1.23878e-05 -30.1875 
73.285 72.18 3.1494 -43.3255 82.0798 -15.5177 0 -0 0 -14.1348 -2.84529 12.8799 15.919 -10.2638 7.19401e-05 66.0352 -8.12227 18.7962 0 82.457 0 -3.66526 4.42515 -0.141702 -10.1963 13.6481 4.36139e-05 -55.9112 -8.3307 -0.962533 180 -85.0216 -180 -2.99311 4.27918 -0.1119 6.90277 3.23834 -15.1836 8.12096 -9.65522 -39.6764 -0 -0 87.3464 -5.05813e-05 -15.153 -10.8388 2.91524 1.5699e-08 -22.4055 -4.30716 11.2865 -74.1688 -0 -0 74.6668 2.40048e-06 10.5777 -10.9714 -2.03549 9.84628e-06 -31.0719 
74.118 72.317 3.2833 -44.9145 82.0202 -17.1984 0 -0 0 -14.1802 -3.66377 13.3825 15.9171 -10.2918 -5.99043e-05 65.8411 -8.38186 19.118 -1.63135e-06 80.2891 -1.93428e-06 -3.45493 4.47343 -0.135003 -9.44844 13.2154 -5.37575e-05 -55.2766 -9.66157 -1.78865 180 -84.7297 -180 -3.07126 4.10143 -0.110003 6.72557 3.70409 -14.6684 8.97908 -9.63379 -41.9288 -0 -0 88.1813 8.73854e-05 -14.7503 -11.2202 2.93262 -1.40913e-05 -22.2295 -4.21036 11.75 -73.5478 -0 -0 74.9141 -1.87812e-05 10.3268 -11.6237 -2.10245 8.64662e-06 -31.9721 
74.951 72.453 3.4191 -46.6187 82.0018 -19.0232 0 -0 0 -14.2068 -4.47821 13.9342 15.9099 -10.3507 3.3511e-05 65.5819 -8.7163 19.3148 -9.33273e-07 78.224 -1.14786e-06 -3.23712 4.51177 -0.127602 -8.69021 12.8314 1.05422e-05 -54.5005 -10.9354 -2.56912 -180 -84.4151 180 -3.18694 3.92494 -0.109199 6.53021 4.13562 -14.0427 9.82676 -9.62419 -44.1297 -0 -0 88.7988 -9.05636e-05 -14.3009 -11.5743 2.92804 1.98207e-05 -21.9901 -4.09738 12.1761 -72.8806 -0 -0 75.1342 1.40413e-05 10.0523 -12.1936 -2.14428 -2.2421e-06 -32.8687 
75.785 72.59 3.5567 -48.4763 82.0259 -21.017 0 -0 0 -14.2138 -5.28468 14.5165 15.904 -10.4527 2.23446e-05 65.2712 -9.11432 19.3839 -7.85326e-07 76.2682 -1.00032e-06 -3.04047 4.51654 -0.119898 -7.95577 12.5422 -1.58212e-05 -53.5671 -12.2207 -3.27358 180 -84.1481 -180 -3.32362 3.7741 -0.109497 6.3207 4.52761 -13.3116 10.6581 -9.62411 -46.2914 -0 -0 89.1994 -9.87075e-05 -13.8152 -11.9048 2.90392 -2.10716e-05 -21.6521 -3.9651 12.5592 -72.1883 -0 -0 75.3276 3.76859e-05 9.74423 -12.6676 -2.15669 -5.51884e-06 -33.6717 
76.616 72.726 3.697 -50.447 82.0951 -23.1332 0 -0 0 -14.2076 -6.07278 15.112 15.8896 -10.5831 -1.74991e-05 64.9378 -9.5798 19.3092 -9.59347e-07 74.3945 -1.26402e-06 -2.90183 4.49353 -0.113902 -7.23719 12.2945 2.91132e-05 -52.4897 -13.4582 -3.94811 -180 -83.8948 180 -3.47605 3.63975 -0.110499 6.10824 4.87706 -12.4724 11.4646 -9.62239 -48.4226 -0 -0 89.3869 0.000121605 -13.3175 -12.1921 2.86174 6.41713e-06 -21.2683 -3.81517 12.9044 -71.4826 -0 -0 75.5 2.91111e-05 9.39627 -13.0273 -2.13629 1.16558e-05 -34.4344 
77.441 72.863 3.8408 -52.5366 82.1807 -25.3567 0 -0 0 -14.1907 -6.83235 15.6987 15.8635 -10.7409 4.93158e-05 64.602 -10.1051 19.0879 0 72.5836 0 -2.84102 4.43936 -0.1101 -6.54072 12.0867 -1.3203e-05 -51.2772 -14.6499 -4.59979 180 -83.6568 180 -3.6339 3.52693 -0.111905 5.9028 5.17925 -11.5383 12.2406 -9.60771 -50.5356 -0 -0 89.3624 -8.58656e-06 -12.8365 -12.4135 2.80427 8.31774e-06 -20.8858 -3.65291 13.2204 -70.7865 -0 -0 75.6516 1.23316e-05 9.00137 -13.2773 -2.08357 6.22461e-06 -35.1665 
78.258 73.001 3.9886 -54.7076 82.2914 -27.6491 0 -0 0 -14.1639 -7.55657 16.2679 15.8303 -10.9291 2.49454e-05 64.2695 -10.6715 18.7258 1.05917e-06 70.8242 7.53039e-07 -2.86462 4.34534 -0.108701 -5.89033 11.9388 -7.46122e-06 -49.925 -15.8299 -5.22123 180 -83.4469 180 -3.78246 3.44795 -0.113901 5.71067 5.43451 -10.5275 12.9833 -9.57538 -52.6319 -0 -0 89.1275 -3.14773e-05 -12.4056 -12.5521 2.737 -4.33878e-06 -20.5548 -3.48243 13.5178 -70.1079 -0 -0 75.7859 2.26481e-05 8.55535 -13.44 -2.00255 9.46847e-06 -35.8418 
79.064 73.141 4.1409 -56.9197 82.409 -29.9608 0 -0 0 -14.1301 -8.23429 16.8054 15.7876 -11.1398 4.55484e-07 63.9546 -11.2712 18.2246 0 69.0959 0 -2.97301 4.2218 -0.109596 -5.28067 11.8296 2.32384e-05 -48.453 -16.9698 -5.83558 180 -83.2631 -180 -3.91599 3.39846 -0.116198 5.54138 5.64111 -9.45961 13.6882 -9.51346 -54.7153 -0 -0 88.6825 -2.14472e-05 -12.0616 -12.5888 2.66653 -2.35394e-06 -20.3389 -3.31265 13.8125 -69.4583 -0 -0 75.9014 3.12285e-05 8.06137 -13.5376 -1.89891 -3.01147e-06 -36.5171 
